<svg xmlns="http://www.w3.org/2000/svg" xmlns:xlink="http://www.w3.org/1999/xlink" width="2000" zoomAndPan="magnify" viewBox="0 0 1500 1499.999933" height="2000" preserveAspectRatio="xMidYMid meet" version="1.0"><defs><clipPath id="b1a1f28177"><path d="M 0 0 L 1500 0 L 1500 1500 L 0 1500 Z M 0 0 " clip-rule="nonzero"/></clipPath><clipPath id="372c00e178"><rect x="0" width="1500" y="0" height="1500"/></clipPath><clipPath id="5abed610f9"><path d="M 508 336 L 1212 336 L 1212 1164 L 508 1164 Z M 508 336 " clip-rule="nonzero"/></clipPath><clipPath id="4861e501fa"><path d="M 508.210938 1020.0625 L 1019.628906 336.140625 L 1211.917969 479.929688 L 700.496094 1163.847656 Z M 508.210938 1020.0625 " clip-rule="nonzero"/></clipPath><clipPath id="2308d820dc"><path d="M 0.078125 0 L 704 0 L 704 828 L 0.078125 828 Z M 0.078125 0 " clip-rule="nonzero"/></clipPath><clipPath id="1aee0db693"><path d="M 0.210938 684.0625 L 511.628906 0.140625 L 703.917969 143.929688 L 192.496094 827.847656 Z M 0.210938 684.0625 " clip-rule="nonzero"/></clipPath><clipPath id="734755fd5d"><rect x="0" width="704" y="0" height="828"/></clipPath><clipPath id="625ae01ceb"><path d="M 292 667 L 844 667 L 844 1164 L 292 1164 Z M 292 667 " clip-rule="nonzero"/></clipPath><clipPath id="7eaa987141"><path d="M 700.191406 1163.84375 L 292.421875 859.722656 L 435.96875 667.253906 L 843.738281 971.378906 Z M 700.191406 1163.84375 " clip-rule="nonzero"/></clipPath><clipPath id="63a81d5be0"><path d="M 0.320312 0.199219 L 551.839844 0.199219 L 551.839844 497 L 0.320312 497 Z M 0.320312 0.199219 " clip-rule="nonzero"/></clipPath><clipPath id="f1b4f7f95d"><path d="M 408.191406 496.84375 L 0.421875 192.722656 L 143.96875 0.253906 L 551.738281 304.378906 Z M 408.191406 496.84375 " clip-rule="nonzero"/></clipPath><clipPath id="b5e90c6112"><rect x="0" width="552" y="0" height="497"/></clipPath></defs><rect x="-150" width="1800" fill="#ffffff" y="-149.999993" height="1799.99992" fill-opacity="1"/><rect x="-150" width="1800" fill="#ffffff" y="-149.999993" height="1799.99992" fill-opacity="1"/><g transform="matrix(1, 0, 0, 1, 0, 0.000000000000112861)"><g clip-path="url(#372c00e178)"><g clip-path="url(#b1a1f28177)"><rect x="-330" width="2160" fill="#22c35d" height="2159.999904" y="-329.999985" fill-opacity="1"/></g></g></g><g clip-path="url(#5abed610f9)"><g clip-path="url(#4861e501fa)"><g transform="matrix(1, 0, 0, 1, 508, 336)"><g clip-path="url(#734755fd5d)"><g clip-path="url(#2308d820dc)"><g clip-path="url(#1aee0db693)"><path fill="#ffffff" d="M 0.210938 684.0625 L 511.890625 -0.207031 L 704.179688 143.578125 L 192.496094 827.847656 Z M 0.210938 684.0625 " fill-opacity="1" fill-rule="nonzero"/></g></g></g></g></g></g><g clip-path="url(#625ae01ceb)"><g clip-path="url(#7eaa987141)"><g transform="matrix(1, 0, 0, 1, 292, 667)"><g clip-path="url(#b5e90c6112)"><g clip-path="url(#63a81d5be0)"><g clip-path="url(#f1b4f7f95d)"><path fill="#ffffff" d="M 408.191406 496.84375 L 0.703125 192.933594 L 144.25 0.464844 L 551.738281 304.378906 Z M 408.191406 496.84375 " fill-opacity="1" fill-rule="nonzero"/></g></g></g></g></g></g></svg>