<svg xmlns="http://www.w3.org/2000/svg" xmlns:xlink="http://www.w3.org/1999/xlink" width="2000" zoomAndPan="magnify" viewBox="0 0 1500 1499.999933" height="2000" preserveAspectRatio="xMidYMid meet" version="1.0"><defs><g/><clipPath id="fcf5454261"><rect x="0" width="1270" y="0" height="731"/></clipPath></defs><rect x="-150" width="1800" fill="#ffffff" y="-149.999993" height="1799.99992" fill-opacity="1"/><rect x="-150" width="1800" fill="#000000" y="-149.999993" height="1799.99992" fill-opacity="1"/><g transform="matrix(1, 0, 0, 1, 116, 396)"><g clip-path="url(#fcf5454261)"><g fill="#ffffff" fill-opacity="1"><g transform="translate(0.572933, 572.692733)"><g><path d="M 259.03125 -126.5 L 259.03125 -59.1875 L 22.78125 -154 L 22.78125 -216.859375 L 259.03125 -311.671875 L 259.03125 -244.625 L 110.265625 -188.3125 L 110.265625 -182.8125 Z M 259.03125 -126.5 "/></g></g><g transform="translate(289.456932, 572.692733)"><g><path d="M 292.546875 -382.90625 L 292.546875 -319.53125 L 125.453125 -319.53125 L 125.453125 -218.171875 L 277.09375 -218.171875 L 277.09375 -155.578125 L 125.453125 -155.578125 L 125.453125 0 L 49.765625 0 L 49.765625 -382.90625 Z M 292.546875 -382.90625 "/></g></g></g><g fill="#ffffff" fill-opacity="1"><g transform="translate(599.031635, 572.692733)"><g/></g><g transform="translate(725.532967, 572.692733)"><g/></g><g transform="translate(852.034298, 572.692733)"><g/></g></g><g fill="#ffffff" fill-opacity="1"><g transform="translate(978.535624, 572.692733)"><g><path d="M 265.578125 -154 L 29.328125 -59.1875 L 29.328125 -126.5 L 178.359375 -182.8125 L 178.359375 -188.3125 L 29.328125 -244.625 L 29.328125 -311.671875 L 265.578125 -216.859375 Z M 265.578125 -154 "/></g></g></g></g></g><g fill="#ffffff" fill-opacity="1"><g transform="translate(718.055132, 946.436265)"><g><path d="M 70.453125 54.734375 L 1.578125 54.734375 L 144.3125 -404.90625 L 213.453125 -404.90625 Z M 70.453125 54.734375 "/></g></g></g><g fill="#ffffff" fill-opacity="1"><g transform="translate(835.755706, 946.436265)"><g><path d="M 246.1875 84.078125 L 0 84.078125 L 0 25.671875 L 246.1875 25.671875 Z M 246.1875 84.078125 "/></g></g></g></svg>