<svg xmlns="http://www.w3.org/2000/svg" xmlns:xlink="http://www.w3.org/1999/xlink" width="2000" zoomAndPan="magnify" viewBox="0 0 1500 1499.999933" height="2000" preserveAspectRatio="xMidYMid meet" version="1.0"><defs><clipPath id="6312e3db77"><path d="M 0 0 L 1500 0 L 1500 1500 L 0 1500 Z M 0 0 " clip-rule="nonzero"/></clipPath><clipPath id="129948f0b0"><rect x="0" width="1500" y="0" height="1500"/></clipPath><clipPath id="224f665af4"><path d="M 234.398438 629.941406 L 1269.921875 629.941406 L 1269.921875 870.042969 L 234.398438 870.042969 Z M 234.398438 629.941406 " clip-rule="nonzero"/></clipPath><clipPath id="093bf296e9"><path d="M 0.398438 0.941406 L 1035.921875 0.941406 L 1035.921875 241.042969 L 0.398438 241.042969 Z M 0.398438 0.941406 " clip-rule="nonzero"/></clipPath><clipPath id="9b61d30f5c"><rect x="0" width="1036" y="0" height="242"/></clipPath></defs><rect x="-150" width="1800" fill="#ffffff" y="-149.999993" height="1799.99992" fill-opacity="1"/><rect x="-150" width="1800" fill="#ffffff" y="-149.999993" height="1799.99992" fill-opacity="1"/><g transform="matrix(1, 0, 0, 1, 0, 0.000000000000112861)"><g clip-path="url(#129948f0b0)"><g clip-path="url(#6312e3db77)"><rect x="-330" width="2160" fill="#2f2f2f" height="2159.999904" y="-329.999985" fill-opacity="1"/></g></g></g><g clip-path="url(#224f665af4)"><g transform="matrix(1, 0, 0, 1, 234, 629)"><g clip-path="url(#9b61d30f5c)"><g clip-path="url(#093bf296e9)"><path fill="#ffffff" d="M 1035.921875 241.042969 L 0.484375 241.042969 L 0.484375 0.941406 L 1035.921875 0.941406 Z M 1035.921875 241.042969 " fill-opacity="1" fill-rule="nonzero"/></g></g></g></g></svg>