<svg xmlns="http://www.w3.org/2000/svg" xmlns:xlink="http://www.w3.org/1999/xlink" width="2000" zoomAndPan="magnify" viewBox="0 0 1500 1499.999933" height="2000" preserveAspectRatio="xMidYMid meet" version="1.0"><defs><clipPath id="6ad2bba72b"><path d="M 0 0 L 1500 0 L 1500 1500 L 0 1500 Z M 0 0 " clip-rule="nonzero"/></clipPath><clipPath id="ec8b8cec79"><rect x="0" width="1500" y="0" height="1500"/></clipPath><clipPath id="99ecba56e8"><path d="M 301 298 L 1204 298 L 1204 1201 L 301 1201 Z M 301 298 " clip-rule="nonzero"/></clipPath><clipPath id="f51f72fede"><path d="M 1203.160156 468.773438 L 470.9375 1200.996094 L 301.15625 1031.21875 L 1033.382812 298.992188 Z M 1203.160156 468.773438 " clip-rule="nonzero"/></clipPath><clipPath id="fcb26fbec7"><path d="M 0 0.800781 L 902.359375 0.800781 L 902.359375 903 L 0 903 Z M 0 0.800781 " clip-rule="nonzero"/></clipPath><clipPath id="b0fd5a8d65"><path d="M 902.160156 170.773438 L 169.9375 902.996094 L 0.15625 733.21875 L 732.382812 0.992188 Z M 902.160156 170.773438 " clip-rule="nonzero"/></clipPath><clipPath id="45fdf5da9e"><rect x="0" width="903" y="0" height="903"/></clipPath><clipPath id="176a1bc2f7"><path d="M 301 298 L 1204 298 L 1204 1201 L 301 1201 Z M 301 298 " clip-rule="nonzero"/></clipPath><clipPath id="3f4a936f1a"><path d="M 1033.390625 1200.992188 L 301.164062 468.765625 L 470.941406 298.988281 L 1203.167969 1031.214844 Z M 1033.390625 1200.992188 " clip-rule="nonzero"/></clipPath><clipPath id="4dd5a2a875"><path d="M 0 1 L 902.359375 1 L 902.359375 903 L 0 903 Z M 0 1 " clip-rule="nonzero"/></clipPath><clipPath id="1258aa6975"><path d="M 732.390625 902.992188 L 0.164062 170.765625 L 169.941406 0.988281 L 902.167969 733.214844 Z M 732.390625 902.992188 " clip-rule="nonzero"/></clipPath><clipPath id="95fa867e08"><rect x="0" width="903" y="0" height="903"/></clipPath></defs><rect x="-150" width="1800" fill="#ffffff" y="-149.999993" height="1799.99992" fill-opacity="1"/><rect x="-150" width="1800" fill="#ffffff" y="-149.999993" height="1799.99992" fill-opacity="1"/><g transform="matrix(1, 0, 0, 1, 0, 0.000000000000112861)"><g clip-path="url(#ec8b8cec79)"><g clip-path="url(#6ad2bba72b)"><rect x="-330" width="2160" fill="#d81f1f" height="2159.999904" y="-329.999985" fill-opacity="1"/></g></g></g><g clip-path="url(#99ecba56e8)"><g clip-path="url(#f51f72fede)"><g transform="matrix(1, 0, 0, 1, 301, 298)"><g clip-path="url(#45fdf5da9e)"><g clip-path="url(#fcb26fbec7)"><g clip-path="url(#b0fd5a8d65)"><path fill="#ffffff" d="M 902.160156 170.773438 L 169.996094 902.9375 L 0.21875 733.160156 L 732.382812 0.992188 Z M 902.160156 170.773438 " fill-opacity="1" fill-rule="nonzero"/></g></g></g></g></g></g><g clip-path="url(#176a1bc2f7)"><g clip-path="url(#3f4a936f1a)"><g transform="matrix(1, 0, 0, 1, 301, 298)"><g clip-path="url(#95fa867e08)"><g clip-path="url(#4dd5a2a875)"><g clip-path="url(#1258aa6975)"><path fill="#ffffff" d="M 732.390625 902.992188 L 0.222656 170.824219 L 170 1.046875 L 902.167969 733.214844 Z M 732.390625 902.992188 " fill-opacity="1" fill-rule="nonzero"/></g></g></g></g></g></g></svg>